<?xml version="1.0" encoding="UTF-8"?>
<svg id="Layer_1" xmlns="http://www.w3.org/2000/svg" viewBox="0 0 299.99 74.69">
  <defs>
    <style>
      .cls-1 {
        fill: #3bae49;
      }

      .cls-2 {
        fill: #fff;
      }
    </style>
  </defs>
  <g>
    <path class="cls-2" d="M20.68,48.72c-5.75,0-9.19-3.83-9.19-9.42s3.45-9.42,9.19-9.42c2.38,0,4.52,1.22,5.67,2.83l7.58-7.97c-3.6-3.67-8.89-4.98-13.25-4.98C9.19,19.76,0,27.42,0,39.3s9.19,19.53,20.68,19.53c4.37,0,9.65-1.3,13.25-4.98l-7.58-7.96c-1.3,1.53-3.14,2.83-5.67,2.83Z"/>
    <path class="cls-2" d="M52.01,19.76c-11.49,0-20.68,7.66-20.68,19.53s9.19,19.53,20.68,19.53,20.69-7.66,20.69-19.53-9.19-19.53-20.69-19.53ZM52.01,48.72c-5.75,0-9.19-3.83-9.19-9.42s3.45-9.42,9.19-9.42,9.2,3.83,9.2,9.42-3.45,9.42-9.2,9.42Z"/>
    <path class="cls-2" d="M94.76,19.76c-11.49,0-20.69,7.66-20.69,19.53s9.2,19.53,20.69,19.53,20.68-7.66,20.68-19.53-9.19-19.53-20.68-19.53ZM94.76,48.72c-5.74,0-9.19-3.83-9.19-9.42s3.45-9.42,9.19-9.42,9.19,3.83,9.19,9.42-3.45,9.42-9.19,9.42Z"/>
    <rect class="cls-2" x="118.35" width="11.49" height="57.91"/>
    <path class="cls-2" d="M150.52,9.65h-11.49v11.03h-7.35v9.19h7.35v17.69c0,8.12,5.9,11.26,13.56,11.26,2.68,0,5.52-.23,8.04-1.15v-9.57c-.99.92-3.45,1.07-4.67,1.07-4.98,0-5.44-2.91-5.44-6.9v-12.41h10.11v-9.19h-10.11v-11.03Z"/>
    <path class="cls-2" d="M189.28,20.15c-1.07-.31-2.53-.38-3.83-.38-5.06,0-8.27,2.38-10.73,6.89h-.15v-5.97h-11.49v37.23h11.49v-15.55c0-7.43,1.07-12.48,9.81-12.48,1.69,0,3.29.3,4.9.77v-10.5Z"/>
    <path class="cls-2" d="M252.71,39.3l12.1-18.61h-12.79l-6.48,11.74-6.47-11.74h-13.56l12.41,18.61-13.71,17.35v-17.66c0-12.41-3.6-19.23-17.01-19.23-6.05,0-12.18,1.99-16.39,5.98l6.13,6.28c2.45-2.76,5.59-4.44,9.35-4.44,3.98,0,7.35,2.6,7.35,6.66-9.58,0-25.2.23-25.2,13.1,0,7.51,6.28,11.49,13.25,11.49,4.67,0,9.27-1.61,11.8-5.59h.15v4.67h22.98l8.73-11.67,8.12,11.67h13.56l-14.33-18.61ZM213.64,44.05c0,4.6-4.21,6.97-8.73,6.97-2.53,0-5.44-1.3-5.44-4.06,0-5.06,7.81-5.36,11.34-5.36h2.83v2.45Z"/>
  </g>
  <g>
    <path class="cls-1" d="M126.12,67.86c.76,0,1.33.28,1.75.93l1.16-.89c-.62-.83-1.59-1.2-2.71-1.2-2.34,0-4.23,1.69-4.64,4-.41,2.34.87,4,3.23,4,1.11,0,2.21-.37,3.09-1.22l-.78-.89c-.59.65-1.27.95-2.1.95-1.54,0-2.34-1.27-2.07-2.83.27-1.56,1.36-2.83,3.06-2.83Z"/>
    <path class="cls-1" d="M134.29,66.69c-2.34,0-4.35,1.62-4.77,4-.42,2.37,1.02,4,3.36,4s4.35-1.63,4.77-4c.42-2.38-1.02-4-3.36-4ZM136.28,70.69c-.28,1.59-1.56,2.83-3.2,2.83s-2.48-1.24-2.2-2.83c.28-1.59,1.55-2.83,3.19-2.83s2.48,1.24,2.2,2.83Z"/>
    <polygon class="cls-1" points="139.06 74.5 140.32 74.5 142.49 62.21 141.22 62.21 139.06 74.5"/>
    <path class="cls-1" d="M150.31,68h-.03c-.55-.81-1.4-1.3-2.5-1.3-2.39,0-4.3,1.69-4.7,4-.4,2.27.97,4,3.1,4,1.37,0,2.57-.68,3.2-1.54h.03l-.24,1.35h1.27l2.17-12.29h-1.27l-1.02,5.79ZM149.84,70.69c-.28,1.59-1.55,2.83-3.2,2.83s-2.48-1.24-2.2-2.83c.28-1.59,1.55-2.83,3.2-2.83s2.48,1.24,2.2,2.83Z"/>
    <path class="cls-1" d="M161.96,67.86c.76,0,1.33.28,1.75.93l1.16-.89c-.62-.83-1.59-1.2-2.71-1.2-2.34,0-4.23,1.69-4.64,4-.41,2.34.87,4,3.23,4,1.11,0,2.21-.37,3.09-1.22l-.78-.89c-.58.65-1.27.95-2.1.95-1.54,0-2.34-1.27-2.07-2.83.27-1.56,1.36-2.83,3.07-2.83Z"/>
    <path class="cls-1" d="M170.24,66.69c-1.19,0-2.21.65-2.66,1.25h-.03l1.01-5.74h-1.27l-2.17,12.29h1.27l.66-3.71c.3-1.74,1.23-2.93,2.87-2.93,1.19,0,1.6.8,1.37,2.06l-.81,4.57h1.27l.83-4.7c.32-1.84-.35-3.11-2.35-3.11Z"/>
    <path class="cls-1" d="M178.46,66.69c-1.1,0-2.31.37-3.23,1.17l.65.83c.7-.55,1.59-.83,2.4-.83,1.19,0,1.79.57,1.59,1.68l-.04.23h-.49c-1.87,0-4.82.15-5.26,2.67-.26,1.48.89,2.26,2.43,2.26,1.15,0,2.1-.55,2.73-1.33h.03c-.06.33-.14.8-.12,1.14h1.22c0-.39.04-.88.12-1.32l.58-3.27c.38-2.15-.38-3.22-2.62-3.22ZM179.56,71.33c-.25,1.24-1.18,2.29-2.65,2.29-.96,0-1.61-.36-1.44-1.32.18-1.02,1.3-1.46,2.91-1.46h1.27l-.09.49Z"/>
    <path class="cls-1" d="M185.37,62.99c-.52,0-1,.42-1.09.93-.09.54.23.92.76.92s1-.39,1.09-.92c.09-.51-.24-.93-.76-.93Z"/>
    <polygon class="cls-1" points="182.71 74.5 183.98 74.5 185.32 66.89 184.05 66.89 182.71 74.5"/>
    <path class="cls-1" d="M191.61,66.69c-1.25,0-2.32.7-2.79,1.45h-.03c.08-.42.12-.85.19-1.25h-1.2c-.09.51-.13,1.11-.25,1.8l-1.02,5.81h1.27l.65-3.71c.31-1.74,1.23-2.93,2.87-2.93,1.18,0,1.6.8,1.37,2.06l-.81,4.57h1.27l.83-4.7c.32-1.84-.35-3.11-2.34-3.11Z"/>
    <path class="cls-1" d="M203.46,67.86c.75,0,1.22.37,1.45.91l1.18-.7c-.35-.98-1.27-1.38-2.34-1.38-1.41,0-2.98.76-3.24,2.24-.28,1.58.9,1.89,2.29,2.21.78.18,1.56.39,1.41,1.2-.15.83-1.08,1.17-1.88,1.17-.89,0-1.37-.41-1.77-1.03l-1.15.78c.56,1.07,1.42,1.41,2.71,1.41,1.51,0,3.16-.67,3.46-2.39.27-1.53-.78-2.01-2.08-2.27-.98-.2-1.84-.47-1.72-1.11.13-.71.98-1.06,1.68-1.06Z"/>
    <path class="cls-1" d="M211.97,66.69c-2.34,0-4.35,1.62-4.77,4-.42,2.37,1.02,4,3.36,4s4.35-1.63,4.77-4c.42-2.38-1.02-4-3.36-4ZM213.96,70.69c-.28,1.59-1.55,2.83-3.2,2.83s-2.48-1.24-2.2-2.83c.28-1.59,1.55-2.83,3.2-2.83s2.48,1.24,2.2,2.83Z"/>
    <polygon class="cls-1" points="216.74 74.5 218.01 74.5 220.17 62.21 218.91 62.21 216.74 74.5"/>
    <path class="cls-1" d="M226.57,70.6c-.3,1.74-1.23,2.93-2.87,2.93-1.19,0-1.6-.8-1.37-2.06l.81-4.57h-1.27l-.83,4.7c-.32,1.84.35,3.11,2.35,3.11,1.25,0,2.32-.7,2.79-1.44h.03c-.07.42-.12.84-.19,1.25h1.2c.09-.51.13-1.11.25-1.8l1.02-5.81h-1.27l-.66,3.71Z"/>
    <path class="cls-1" d="M233.2,64.73h-1.27l-.38,2.16h-1.66l-.19,1.07h1.66l-.74,4.18c-.28,1.58-.16,2.55,1.65,2.55.47,0,1.06-.08,1.53-.27l.15-1.15c-.37.18-.79.26-1.17.26-1.12,0-1-.78-.83-1.76l.67-3.8h2.24l.19-1.07h-2.24l.38-2.16Z"/>
    <path class="cls-1" d="M238.06,62.99c-.52,0-1,.42-1.09.93-.09.54.23.92.76.92s1-.39,1.09-.92c.09-.51-.24-.93-.76-.93Z"/>
    <polygon class="cls-1" points="235.39 74.5 236.66 74.5 238 66.89 236.74 66.89 235.39 74.5"/>
    <path class="cls-1" d="M244.18,66.69c-2.34,0-4.35,1.62-4.77,4-.42,2.37,1.02,4,3.36,4s4.35-1.63,4.77-4c.42-2.38-1.02-4-3.36-4ZM246.17,70.69c-.28,1.59-1.56,2.83-3.2,2.83s-2.48-1.24-2.2-2.83c.28-1.59,1.55-2.83,3.2-2.83s2.48,1.24,2.2,2.83Z"/>
    <path class="cls-1" d="M253.95,66.69c-1.25,0-2.32.7-2.79,1.45h-.03c.07-.42.12-.85.19-1.25h-1.2c-.09.51-.13,1.11-.25,1.8l-1.02,5.81h1.27l.65-3.71c.31-1.74,1.23-2.93,2.87-2.93,1.19,0,1.6.8,1.37,2.06l-.8,4.57h1.27l.83-4.7c.33-1.84-.35-3.11-2.34-3.11Z"/>
    <path class="cls-1" d="M261.28,67.86c.75,0,1.22.37,1.45.91l1.18-.7c-.35-.98-1.27-1.38-2.34-1.38-1.41,0-2.98.76-3.24,2.24-.28,1.58.9,1.89,2.29,2.21.78.18,1.56.39,1.41,1.2-.15.83-1.08,1.17-1.88,1.17-.89,0-1.37-.41-1.77-1.03l-1.15.78c.56,1.07,1.42,1.41,2.71,1.41,1.51,0,3.16-.67,3.46-2.39.27-1.53-.78-2.01-2.08-2.27-.98-.2-1.84-.47-1.72-1.11.13-.71.98-1.06,1.68-1.06Z"/>
    <path class="cls-1" d="M291.66,24.68c-6.7-4.65-15.3-4.49-21.72-.27,6.49-2.16,13.89-1.37,19.94,2.83,6.06,4.2,9.39,10.85,9.63,17.69,1.71-7.5-1.15-15.61-7.85-20.26Z"/>
    <path class="cls-1" d="M288.11,29.63c-4.85-3.36-10.79-3.94-15.94-2.09,4.99-.4,10.15.86,14.59,3.94,4.55,3.16,7.57,7.7,8.89,12.67.03-5.59-2.6-11.1-7.54-14.53Z"/>
    <path class="cls-1" d="M284.96,34.22c-3.24-2.25-7.22-2.63-10.67-1.4,3.34-.27,6.8.58,9.77,2.64,3.05,2.12,5.07,5.16,5.95,8.48.02-3.74-1.74-7.43-5.05-9.72Z"/>
    <path class="cls-1" d="M282.72,37.5c-1.83-1.27-4.08-1.49-6.04-.79,1.89-.15,3.84.33,5.52,1.49,1.72,1.2,2.87,2.92,3.37,4.8,0-2.12-.99-4.2-2.85-5.5Z"/>
    <path class="cls-1" d="M279.47,42.34c-2.22-1.54-5.26-.99-6.8,1.23-1.54,2.22-.99,5.26,1.23,6.8,2.22,1.54,5.26.99,6.8-1.23,1.54-2.22.99-5.26-1.23-6.8Z"/>
  </g>
</svg>