<?xml version="1.0" encoding="UTF-8"?>
<svg width="309px" height="60px" viewBox="0 0 309 60" version="1.1" xmlns="http://www.w3.org/2000/svg" xmlns:xlink="http://www.w3.org/1999/xlink">
    <!-- Generator: Sketch 61.2 (89653) - https://sketch.com -->
    <title>Logo</title>
    <desc>Created with Sketch.</desc>
    <g id="Homepage" stroke="none" stroke-width="1" fill="none" fill-rule="evenodd">
        <g id="SMA_Homepage" transform="translate(-68.000000, -54.000000)" fill-rule="nonzero">
            <g id="Navigation">
                <g id="Logo" transform="translate(68.000000, 54.000000)">
                    <path d="M14.6543739,5.49539021 C13.4842523,3.75244398 11.4843882,2.75251197 9.38795827,2.8621824 C8.67243314,2.86395254 7.96027381,2.96019028 7.2699433,3.14840064 C6.60241223,3.33234839 5.97260435,3.63271831 5.40952474,4.03567718 C4.84817215,4.4364784 4.39165165,4.96663123 4.07860992,5.58125568 C3.7386304,6.25532414 3.56678125,7.00164045 3.577728,7.7565143 C3.50875976,8.81492205 3.88786825,9.85357543 4.62242458,10.6186967 C5.35009043,11.3359378 6.21044029,11.9046436 7.155456,12.2930734 C8.24870585,12.7596968 9.3722972,13.1517584 10.5185203,13.4665682 C11.6892794,13.8170307 12.8172792,14.2970306 13.8815846,14.8976594 C14.8980282,15.4623967 15.777537,16.2441823 16.4575488,17.1874053 C17.2066556,18.3373715 17.5723685,19.6950181 17.5022454,21.0656625 C17.5190323,22.1988433 17.2586542,23.3189604 16.743767,24.3285504 C16.2424828,25.2963216 15.5339681,26.1416529 14.6686848,26.8043382 C13.8093067,27.4783147 12.8414034,28.0009825 11.8065024,28.3499167 C10.7709695,28.7109543 9.68318007,28.8995044 8.5865472,28.9080831 C6.95716082,28.9122197 5.34283454,28.5961619 3.83532442,27.977833 C2.29294737,27.3195163 0.964745886,26.2440695 1.27106432e-15,24.8723651 L2.53303142,23.0691901 C3.1269551,24.073797 3.97620675,24.9032986 4.99450829,25.4734234 C6.13321729,26.0977509 7.41715538,26.408859 8.71534541,26.3750108 C9.41500528,26.3706643 10.1099132,26.259672 10.7761167,26.0458598 C11.4510423,25.846105 12.0822209,25.5208053 12.6365353,25.0870287 C13.1881479,24.661809 13.6501954,24.1316703 13.9960719,23.5271393 C14.3548899,22.8997766 14.5424321,22.1890905 14.5398866,21.466368 C14.5717802,20.6377381 14.3630186,19.8176033 13.9388283,19.1050675 C13.5388287,18.4688881 13.0008073,17.9308668 12.364628,17.5308672 C11.6670145,17.0870877 10.9171442,16.73138 10.1321257,16.4718597 L7.55616154,15.6275159 C6.66888499,15.3412977 5.81023027,15.0264576 4.98019738,14.6686848 C4.16823271,14.306757 3.41557938,13.8242869 2.7476951,13.2375936 C2.07860861,12.6683185 1.54144283,11.9602363 1.17349478,11.1625114 C0.739768324,10.1763815 0.53430645,9.10504455 0.57243648,8.02842163 C0.547797736,6.84403842 0.807915587,5.67105415 1.33091482,4.60811366 C1.80320002,3.66229206 2.48322679,2.83549692 3.32013158,2.18956954 C4.17889752,1.54192263 5.14893689,1.05690294 6.18231398,0.758478336 C7.23366267,0.455239984 8.32237388,0.301086185 9.4165801,0.300529152 C10.8473988,0.282273439 12.2691775,0.529750268 13.6096773,1.03038566 C14.9651297,1.59347478 16.16346,2.47748892 17.1015398,3.60634982 L14.6543739,5.49539021 Z" id="Path" fill="#4E4F53"></path>
                    <polygon id="Path" fill="#4E4F53" points="41.8451067 23.1407447 51.0327122 0.987452928 55.3259858 0.987452928 55.3259858 28.1781857 52.4924252 28.1781857 52.4924252 4.67966822 52.4924252 4.67966822 42.5749632 28.2211185 41.143872 28.2211185 31.2693427 4.67966822 31.1977882 4.67966822 31.1977882 28.2211185 28.4214712 28.2211185 28.4214712 1.03038566 32.7147448 1.03038566"></polygon>
                    <path d="M67.4616392,28.2211185 L64.2273731,28.2211185 L76.0768082,1.03038566 L78.710016,1.03038566 L90.5594511,28.2211185 L87.3824287,28.2211185 L84.3771372,21.0656625 L70.4669307,21.0656625 L67.4616392,28.2211185 Z M71.55456,18.6041856 L83.3610624,18.6041856 L77.4220339,4.2932736 L71.55456,18.6041856 Z" id="Shape" fill="#4E4F53"></path>
                    <path d="M102.337332,28.2211185 L99.5753257,28.2211185 L99.5753257,1.03038566 L107.96152,1.03038566 C110.278598,0.910644576 112.571003,1.5541269 114.487296,2.8621824 C116.133419,4.15321162 117.04238,6.16896659 116.920151,8.25739622 C116.966524,10.0266927 116.325328,11.7450963 115.131287,13.0515517 C113.755705,14.4274534 111.909453,15.2303942 109.965048,15.2983649 L117.807428,28.1781857 L114.487296,28.1781857 L107.031311,15.5273395 L102.337332,15.5273395 L102.337332,28.2211185 Z M102.337332,13.0229299 L107.33184,13.0229299 C108.388605,13.0421872 109.443049,12.9170021 110.46593,12.6508462 C111.215589,12.4506036 111.916712,12.1000421 112.526701,11.6204605 C113.014251,11.2459375 113.398404,10.7534338 113.642952,10.1893693 C113.874683,9.59172294 113.991221,8.95562146 113.986414,8.31463987 C113.989902,7.69235824 113.873283,7.0752493 113.642952,6.49715405 C113.404268,5.90169707 113.02056,5.37532845 112.526701,4.96588646 C111.918131,4.48722219 111.216181,4.14112209 110.46593,3.94981171 C109.444911,3.6698715 108.390531,3.53025037 107.33184,3.53479526 L102.337332,3.53479526 L102.337332,13.0229299 Z" id="Shape" fill="#4E4F53"></path>
                    <polygon id="Path" fill="#4E4F53" points="136.382991 28.2211185 133.606674 28.2211185 133.606674 3.53479526 124.504934 3.53479526 124.504934 0.987452928 145.513353 0.987452928 145.513353 3.53479526 136.382991 3.53479526"></polygon>
                    <path d="M172.91875,7.64202701 C172.416786,6.97985467 171.729401,6.48174989 170.943844,6.21093581 C170.183306,5.92780212 169.379696,5.77773049 168.568232,5.76729754 C168.115128,5.76552928 167.663461,5.81838384 167.223007,5.92471757 C166.769962,6.02394791 166.332056,6.18274889 165.920714,6.39697766 C165.522935,6.60535307 165.179767,6.90439962 164.91895,7.2699433 C164.665676,7.66037693 164.545214,8.12214455 164.575488,8.5865472 C164.542559,9.3337755 164.893333,10.0461173 165.505697,10.4755876 C166.222394,10.9544144 167.002811,11.3301708 167.824065,11.5918387 C168.768585,11.8923679 169.770349,12.2072079 170.843667,12.5077371 C171.904361,12.8101231 172.919885,13.2529106 173.86327,13.824341 C174.806456,14.3859089 175.605277,15.1602262 176.195949,16.0854651 C176.861757,17.2395711 177.179818,18.5615132 177.111847,19.8921677 C177.150759,21.2619869 176.861246,22.6212243 176.267503,23.8562903 C175.7365,24.974983 174.952603,25.954854 173.977757,26.7184727 C172.98003,27.4842503 171.842554,28.0481276 170.629004,28.3785385 C169.324188,28.7392774 167.975679,28.9174732 166.621948,28.9080422 C164.946813,28.9296576 163.280781,28.6584431 161.698995,28.1066312 C160.104138,27.5358813 158.64304,26.6446112 157.405721,25.4877343 L161.698995,20.7937551 C162.30386,21.6145239 163.106234,22.2692217 164.031673,22.6971064 C164.921804,23.1370715 165.900933,23.3671667 166.893856,23.3697193 C167.375741,23.3651443 167.85566,23.307554 168.324947,23.1979884 C168.796433,23.0939525 169.249809,22.9203192 169.670173,22.6827955 C170.053908,22.4649058 170.382065,22.1612378 170.629004,21.795519 C170.88813,21.4226691 171.018747,20.9755562 171.001087,20.5218478 C171.027055,19.7608707 170.673048,19.036766 170.056567,18.5898747 C169.336481,18.065746 168.540072,17.655475 167.695267,17.3734472 C166.750747,17.0442962 165.720361,16.7151452 164.618421,16.3716833 C163.539698,16.0561481 162.505711,15.6040793 161.541575,15.0264576 C160.593676,14.4732307 159.785743,13.7093671 159.180274,12.7939553 C158.501872,11.7017893 158.172399,10.4288229 158.235754,9.14467277 C158.206801,7.81093961 158.501423,6.49004816 159.094409,5.29503744 C159.655885,4.22006869 160.441609,3.27817562 161.398466,2.53303142 C162.396886,1.77358083 163.527479,1.20585785 164.732908,0.85865472 C165.991929,0.486324673 167.298245,0.298330909 168.611165,0.300356411 C170.124201,0.293263865 171.62961,0.51521516 173.07617,0.958831104 C174.518903,1.39359819 175.847992,2.14121094 176.968738,3.14840064 L172.91875,7.64202701 Z" id="Path" fill="#4E4F53"></path>
                    <polygon id="Path" fill="#4E4F53" points="187.029309 0.987452928 205.533318 0.987452928 205.533318 6.52577587 193.039892 6.52577587 193.039892 11.6061496 204.846394 11.6061496 204.846394 17.1730944 193.039892 17.1730944 193.039892 22.7114173 206.220242 22.7114173 206.220242 28.2497403 187.029309 28.2497403"></polygon>
                    <polygon id="Path" fill="#4E4F53" points="216.295124 0.987452928 224.452344 0.987452928 236.029872 19.9064786 236.130048 19.9064786 236.130048 0.987452928 242.12632 0.987452928 242.12632 28.1781857 234.269629 28.1781857 222.377262 8.8298327 222.377262 8.8298327 222.377262 28.2211185 216.366679 28.2211185"></polygon>
                    <path d="M266.383316,7.64202701 C265.873355,6.98187427 265.182121,6.48458364 264.394099,6.21093581 C263.638852,5.92663101 262.839733,5.77649336 262.032799,5.76729754 C261.579606,5.76395389 261.127749,5.81683084 260.687573,5.92471757 C260.229936,6.02386708 259.787289,6.18264261 259.370969,6.39697766 C258.976518,6.60448608 258.637824,6.90391151 258.383516,7.2699433 C258.118079,7.6512204 257.982584,8.10788963 257.997122,8.57223629 C257.960968,9.31676893 258.306074,10.0285495 258.91302,10.4612767 C259.633391,10.9426583 260.418902,11.318547 261.245699,11.5775278 C262.175908,11.878057 263.191983,12.192897 264.265301,12.4934262 C265.324972,12.798658 266.340129,13.241286 267.284903,13.8100301 C268.220337,14.37666 269.013436,15.1501765 269.603271,16.0711542 C270.274834,17.2234435 270.597945,18.5457111 270.53348,19.8778568 C270.562685,21.2467755 270.273648,22.60378 269.689137,23.8419794 C269.153323,24.9576558 268.370238,25.9365125 267.399391,26.7041618 C266.401664,27.4699394 265.264187,28.0338167 264.050637,28.3642276 C262.74095,28.7250137 261.387711,28.9031982 260.029271,28.8937313 C258.35431,28.9130155 256.688678,28.6418661 255.106317,28.0923203 C253.536212,27.5143272 252.099918,26.6233379 250.884598,25.4734234 L255.177872,20.7794442 C255.780524,21.5966567 256.577317,22.2508146 257.49624,22.6827955 C258.386885,23.1213266 259.365677,23.3513427 260.358422,23.3554084 C260.840241,23.3498113 261.320049,23.2922343 261.789513,23.1836774 C262.261,23.0796416 262.714375,22.9060082 263.134739,22.6684846 C263.518474,22.4505949 263.846632,22.1469269 264.09357,21.7812081 C264.346353,21.4053567 264.476352,20.9603601 264.465654,20.5075369 C264.491621,19.7465598 264.137614,19.0224551 263.521134,18.5755638 C262.797505,18.0487465 261.995954,17.6383138 261.145522,17.3591363 C260.201002,17.0299853 259.170616,16.7008343 258.068676,16.3573724 C256.990951,16.0390965 255.957301,15.5871752 254.99183,15.0121467 C254.047553,14.4540978 253.24061,13.69117 252.63053,12.7796444 C251.952128,11.6874784 251.622654,10.414512 251.686009,9.13036186 C251.654491,7.79473595 251.954417,6.47211197 252.558975,5.28072653 C253.115884,4.20271812 253.902366,3.25991613 254.863032,2.51872051 C255.859846,1.75669928 256.990943,1.1887235 258.197474,0.844343808 C259.456279,0.471022876 260.76274,0.283008182 262.075731,0.28613282 C263.588612,0.281134014 265.093696,0.503037367 266.540736,0.944520192 C268.00305,1.37041968 269.348999,2.12415076 270.476237,3.14840064 L266.383316,7.64202701 Z" id="Path" fill="#4E4F53"></path>
                    <polygon id="Path" fill="#4E4F53" points="280.493875 0.987452928 298.997884 0.987452928 298.997884 6.52577587 286.490147 6.52577587 286.490147 11.6061496 298.29665 11.6061496 298.29665 17.1730944 286.490147 17.1730944 286.490147 22.7114173 299.684808 22.7114173 299.684808 28.2497403 280.493875 28.2497403"></polygon>
                    <path d="M226.670535,48.8717645 L229.933423,48.8717645 C230.37635,48.8683688 230.818174,48.9163932 231.250027,49.0148736 C231.652122,49.0957516 232.035559,49.2510678 232.380589,49.4728228 C232.709758,49.6897445 232.980155,49.9847238 233.167689,50.3314775 C233.369093,50.7301892 233.467489,51.1729733 233.453907,51.6194596 C233.465558,52.1763277 233.289091,52.7208558 232.953026,53.1650381 C232.588197,53.6064582 232.083106,53.9095128 231.521934,54.0236928 L231.521934,54.0236928 C232.208475,54.0463122 232.859692,54.3334631 233.33942,54.8251039 C233.798772,55.3606845 234.034485,56.0524499 233.997722,56.757077 C233.983675,57.0186631 233.940475,57.2778641 233.868924,57.5298662 C233.761908,57.9020629 233.570974,58.2447654 233.310798,58.5316301 C232.984347,58.9131349 232.572482,59.2122272 232.108682,59.4045957 C231.4445,59.6857509 230.725304,59.8129557 230.004978,59.7766794 L226.670535,59.7766794 L226.670535,48.8717645 Z M227.786786,53.66592 L230.033599,53.66592 C230.298795,53.6607871 230.562673,53.6272026 230.8207,53.5657436 C231.075083,53.4944539 231.316584,53.3833634 231.536245,53.2365926 C231.747912,53.0742529 231.923381,52.8695388 232.051438,52.6355343 C232.189496,52.3605095 232.258274,52.0559208 232.251791,51.7482578 C232.266582,51.5911852 232.266582,51.4330703 232.251791,51.2759977 C232.200914,51.0431626 232.092693,50.8267203 231.936951,50.6463176 C231.745267,50.4201021 231.505763,50.239252 231.235716,50.1168138 C230.842993,49.9485154 230.417572,49.870277 229.990667,49.8878392 L227.858341,49.8878392 L227.786786,53.66592 Z M227.786786,58.7892265 L229.919112,58.7892265 C230.299743,58.791327 230.67927,58.7480898 231.049674,58.6604283 C231.371364,58.5956298 231.677504,58.4692864 231.951262,58.2883446 C232.204786,58.1258016 232.415774,57.9050002 232.566631,57.6443535 C232.722847,57.3595876 232.801789,57.0388856 232.795606,56.7141443 C232.833388,56.0981598 232.572409,55.5016352 232.094371,55.1113221 C231.490465,54.7233613 230.778661,54.5378914 230.062221,54.5818184 L227.786786,54.5818184 L227.786786,58.7892265 Z" id="Shape" fill="#4E4F53"></path>
                    <polygon id="Path" fill="#4E4F53" points="242.026144 59.8053012 240.909893 59.8053012 240.909893 55.0970112 236.816972 48.8717645 238.248063 48.8717645 241.510951 54.0380037 244.716595 48.8717645 246.147686 48.8717645 242.054766 55.0970112"></polygon>
                    <polygon id="_Compound_Path_" fill="#4E4F53" points="267.943205 59.5906376 265.281376 59.5906376 265.281376 45.4943892 267.943205 45.4943892"></polygon>
                    <path d="M273.581705,55.2258094 C273.581705,56.6569006 274.168452,57.401068 276.028871,57.401068 C276.76208,57.4007983 277.494154,57.3433808 278.21844,57.2293371 L278.21844,52.9503744 L280.737161,52.9503744 L280.737161,59.1469993 C279.197976,59.5660207 277.609761,59.7777828 276.01456,59.7766837 C272.56563,59.7766837 270.905564,58.3455882 270.905564,55.4834058 L270.905564,49.4728228 C270.905564,46.6106404 272.608563,45.1794978 276.257845,45.1794978 C277.620942,45.176271 278.979885,45.3299324 280.307833,45.6374984 L280.007304,47.970177 C278.707935,47.7029453 277.384016,47.5734314 276.057492,47.5837824 C274.197074,47.5837824 273.581705,48.3565716 273.581705,49.7876628 L273.581705,55.2258094 Z" id="_Compound_Path_2" fill="#4E4F53"></path>
                    <polygon id="_Compound_Path_3" fill="#4E4F53" points="286.361349 59.5906376 283.699519 59.5906376 283.699519 45.4943892 286.361349 45.4943892"></polygon>
                    <polygon id="_Path_" fill="#82C55C" points="289.881833 55.2544312 289.881833 45.4514565 299.684808 45.4514565"></polygon>
                    <path d="M257.596416,45.4943892 L252.344311,45.4943892 L252.344311,47.8413788 L257.324509,47.8413788 C259.113373,47.8413788 259.599944,48.5569244 259.599944,49.9164611 L259.599944,55.1685658 C259.599944,56.5137915 259.113373,57.2293371 257.324509,57.2293371 L255.006141,57.2293371 L255.006141,49.1722936 L252.344311,51.8341233 L252.344311,59.5906376 L257.596416,59.5906376 C261.073968,59.5906376 262.276084,57.8017736 262.276084,55.7982459 L262.276084,49.27247 C262.319017,47.2260096 261.1169,45.4943892 257.596416,45.4943892 Z" id="_Path_2" fill="#4E4F53"></path>
                    <path d="M299.684808,55.0111457 C299.680752,54.3813787 299.807452,53.7576246 300.056892,53.179349 C300.289211,52.6387077 300.630189,52.1515957 301.058656,51.7482578 C301.466936,51.3327872 301.953278,51.0020744 302.489747,50.7751158 C303.061889,50.5399593 303.67434,50.4184411 304.292922,50.417343 C304.902088,50.4199634 305.504882,50.5414945 306.067475,50.7751158 C306.598944,51.0048576 307.083944,51.3298077 307.498566,51.7339469 C307.915129,52.1474447 308.254391,52.6321036 308.50033,53.1650381 C308.74492,53.7393211 308.866783,54.3583847 308.858103,54.9825239 C308.86668,55.611283 308.744861,56.2349969 308.50033,56.8143206 C308.256587,57.3485138 307.917064,57.8335466 307.498566,58.2454118 C307.088173,58.6583445 306.60236,58.9886974 306.067475,59.2185539 C305.504882,59.4521751 304.902088,59.5737062 304.292922,59.5763267 C303.67434,59.5752285 303.061889,59.4537104 302.489747,59.2185539 C301.956851,58.991438 301.471392,58.6661808 301.058656,58.2597228 C300.153815,57.4147494 299.636308,56.2348333 299.627565,54.9968348 L299.684808,55.0111457 Z M300.428976,55.0111457 C300.423622,55.5413589 300.525859,56.0671499 300.729505,56.5567242 C300.919297,57.0193137 301.201773,57.4381567 301.559538,57.7874627 C301.916737,58.1423398 302.339624,58.4242641 302.804587,58.6174956 C303.284109,58.8211938 303.800579,58.9235133 304.321544,58.9180247 C304.842394,58.9222887 305.358617,58.8200181 305.8385,58.6174956 C307.297687,57.9960261 308.23637,56.5540737 308.214112,54.968213 C308.219466,54.4379998 308.117228,53.9122088 307.913583,53.4226345 C307.713566,52.9578674 307.427034,52.5353531 307.069239,52.1775852 C306.716635,51.8273792 306.298403,51.5501792 305.8385,51.3618632 C305.358617,51.1593406 304.842394,51.05707 304.321544,51.061334 C303.800579,51.0558454 303.284109,51.1581649 302.804587,51.3618632 C302.342401,51.5602543 301.920432,51.8415673 301.559538,52.1918961 C301.198526,52.544043 300.915713,52.9682628 300.729505,53.4369454 C300.52584,53.9365314 300.423677,54.4716667 300.428976,55.0111457 L300.428976,55.0111457 Z M302.604234,52.363627 L304.550518,52.363627 C305.054219,52.3184272 305.558438,52.4444821 305.981609,52.7213998 C306.307465,53.0207348 306.476532,53.4539679 306.439559,53.8948946 C306.476514,54.2866016 306.328279,54.6730716 306.038853,54.9395912 C305.753655,55.1722718 305.404081,55.3121014 305.037089,55.3402967 L306.568357,57.6872863 L305.766946,57.6872863 L304.335855,55.3975404 L303.391334,55.3975404 L303.391334,57.6872863 L302.661478,57.6872863 L302.604234,52.363627 Z M303.334091,54.7249275 L304.765182,54.7249275 C304.922068,54.7152377 305.076528,54.6814497 305.223131,54.6247511 C305.351225,54.5718808 305.460783,54.4822429 305.537971,54.3671547 C305.633151,54.2181712 305.678274,54.0426894 305.666769,53.8662728 C305.671774,53.7104926 305.632044,53.5565395 305.552282,53.4226345 C305.483239,53.3202326 305.389794,53.2366246 305.280375,53.179349 C305.159709,53.1177589 305.028721,53.0789475 304.89398,53.0648617 L304.464653,53.0648617 L303.391334,53.0648617 L303.334091,54.7249275 Z" id="Shape" fill="#4E4F53"></path>
                </g>
            </g>
        </g>
    </g>
</svg>